name Walk6.mot
datacolumns 19
datarows 30
range 1.71000000 1.73900000
endheader

                time	   L_ground_force_vx	   L_ground_force_vy	   L_ground_force_vz	   L_ground_force_px	   L_ground_force_py	   L_ground_force_pz	   R_ground_force_vx	   R_ground_force_vy	   R_ground_force_vz	   R_ground_force_px	   R_ground_force_py	   R_ground_force_pz	   L_ground_torque_x	   L_ground_torque_y	   L_ground_torque_z	   R_ground_torque_x	   R_ground_torque_y	   R_ground_torque_z	
          1.71000000	          0.00000000	          0.00000000	          0.00000000	          0.00000000	          0.00000000	          0.00000000	         18.66541577	        941.60221401	         58.78214961	         -0.16619612	          0.00000000	         -0.01183599	          0.00000000	          0.00000000	          0.00000000	          0.00000000	         -2.30559814	          0.00000000	
          1.71100000	          0.00000000	          0.00000000	          0.00000000	          0.00000000	          0.00000000	          0.00000000	         19.30266998	        943.59376091	         59.01211761	         -0.16594803	          0.00000000	         -0.01186798	          0.00000000	          0.00000000	          0.00000000	          0.00000000	         -2.36251794	          0.00000000	
          1.71200000	          0.00000000	          0.00000000	          0.00000000	          0.00000000	          0.00000000	          0.00000000	         19.95437045	        945.63698581	         59.23039385	         -0.16569036	          0.00000000	         -0.01191724	          0.00000000	          0.00000000	          0.00000000	          0.00000000	         -2.41637823	          0.00000000	
          1.71300000	          0.00000000	          0.00000000	          0.00000000	          0.00000000	          0.00000000	          0.00000000	         20.59522412	        947.75502283	         59.43449137	         -0.16544901	          0.00000000	         -0.01198752	          0.00000000	          0.00000000	          0.00000000	          0.00000000	         -2.44895090	          0.00000000	
          1.71400000	          0.00000000	          0.00000000	          0.00000000	          0.00000000	          0.00000000	          0.00000000	         21.20912433	        949.94127564	         59.63176478	         -0.16524053	          0.00000000	         -0.01206159	          0.00000000	          0.00000000	          0.00000000	          0.00000000	         -2.45510215	          0.00000000	
          1.71500000	          0.00000000	          0.00000000	          0.00000000	          0.00000000	          0.00000000	          0.00000000	         21.79904611	        952.18035814	         59.83012571	         -0.16506837	          0.00000000	         -0.01212180	          0.00000000	          0.00000000	          0.00000000	          0.00000000	         -2.44326665	          0.00000000	
          1.71600000	          0.00000000	          0.00000000	          0.00000000	          0.00000000	          0.00000000	          0.00000000	         22.38777212	        954.45864943	         60.04516229	         -0.16492217	          0.00000000	         -0.01216236	          0.00000000	          0.00000000	          0.00000000	          0.00000000	         -2.42919957	          0.00000000	
          1.71700000	          0.00000000	          0.00000000	          0.00000000	          0.00000000	          0.00000000	          0.00000000	         23.01702038	        956.75230511	         60.29652254	         -0.16477293	          0.00000000	         -0.01218583	          0.00000000	          0.00000000	          0.00000000	          0.00000000	         -2.42850129	          0.00000000	
          1.71800000	          0.00000000	          0.00000000	          0.00000000	          0.00000000	          0.00000000	          0.00000000	         23.72063216	        959.03104297	         60.59471961	         -0.16459581	          0.00000000	         -0.01219691	          0.00000000	          0.00000000	          0.00000000	          0.00000000	         -2.45017603	          0.00000000	
          1.71900000	          0.00000000	          0.00000000	          0.00000000	          0.00000000	          0.00000000	          0.00000000	         24.49357460	        961.27024358	         60.93982840	         -0.16439510	          0.00000000	         -0.01219931	          0.00000000	          0.00000000	          0.00000000	          0.00000000	         -2.49489947	          0.00000000	
          1.72000000	          0.00000000	          0.00000000	          0.00000000	          0.00000000	          0.00000000	          0.00000000	         25.30928538	        963.46256608	         61.32001867	         -0.16418616	          0.00000000	         -0.01219625	          0.00000000	          0.00000000	          0.00000000	          0.00000000	         -2.55755072	          0.00000000	
          1.72100000	          0.00000000	          0.00000000	          0.00000000	          0.00000000	          0.00000000	          0.00000000	         26.15162297	        965.63849958	         61.69882778	         -0.16397326	          0.00000000	         -0.01219643	          0.00000000	          0.00000000	          0.00000000	          0.00000000	         -2.62773438	          0.00000000	
          1.72200000	          0.00000000	          0.00000000	          0.00000000	          0.00000000	          0.00000000	          0.00000000	         27.00390026	        967.86134665	         62.02353543	         -0.16375975	          0.00000000	         -0.01221428	          0.00000000	          0.00000000	          0.00000000	          0.00000000	         -2.68794085	          0.00000000	
          1.72300000	          0.00000000	          0.00000000	          0.00000000	          0.00000000	          0.00000000	          0.00000000	         27.83281698	        970.17340115	         62.27109685	         -0.16355613	          0.00000000	         -0.01225901	          0.00000000	          0.00000000	          0.00000000	          0.00000000	         -2.71959396	          0.00000000	
          1.72400000	          0.00000000	          0.00000000	          0.00000000	          0.00000000	          0.00000000	          0.00000000	         28.61154594	        972.55139057	         62.47543524	         -0.16337054	          0.00000000	         -0.01233068	          0.00000000	          0.00000000	          0.00000000	          0.00000000	         -2.71843444	          0.00000000	
          1.72500000	          0.00000000	          0.00000000	          0.00000000	          0.00000000	          0.00000000	          0.00000000	         29.34682158	        974.92517127	         62.69065681	         -0.16320264	          0.00000000	         -0.01242909	          0.00000000	          0.00000000	          0.00000000	          0.00000000	         -2.70082202	          0.00000000	
          1.72600000	          0.00000000	          0.00000000	          0.00000000	          0.00000000	          0.00000000	          0.00000000	         30.07429208	        977.22727313	         62.94216828	         -0.16304129	          0.00000000	         -0.01255413	          0.00000000	          0.00000000	          0.00000000	          0.00000000	         -2.69033025	          0.00000000	
          1.72700000	          0.00000000	          0.00000000	          0.00000000	          0.00000000	          0.00000000	          0.00000000	         30.84130464	        979.43336310	         63.22594872	         -0.16286528	          0.00000000	         -0.01269350	          0.00000000	          0.00000000	          0.00000000	          0.00000000	         -2.70248912	          0.00000000	
          1.72800000	          0.00000000	          0.00000000	          0.00000000	          0.00000000	          0.00000000	          0.00000000	         31.69184911	        981.58017411	         63.52913293	         -0.16265507	          0.00000000	         -0.01281801	          0.00000000	          0.00000000	          0.00000000	          0.00000000	         -2.74110796	          0.00000000	
          1.72900000	          0.00000000	          0.00000000	          0.00000000	          0.00000000	          0.00000000	          0.00000000	         32.63757018	        983.73311096	         63.83626471	         -0.16240741	          0.00000000	         -0.01289676	          0.00000000	          0.00000000	          0.00000000	          0.00000000	         -2.79800925	          0.00000000	
          1.73000000	          0.00000000	          0.00000000	          0.00000000	          0.00000000	          0.00000000	          0.00000000	         33.64002080	        985.93999475	         64.13549630	         -0.16214063	          0.00000000	         -0.01291735	          0.00000000	          0.00000000	          0.00000000	          0.00000000	         -2.85782105	          0.00000000	
          1.73100000	          0.00000000	          0.00000000	          0.00000000	          0.00000000	          0.00000000	          0.00000000	         34.64900333	        988.23494776	         64.42377337	         -0.16188633	          0.00000000	         -0.01288871	          0.00000000	          0.00000000	          0.00000000	          0.00000000	         -2.90991434	          0.00000000	
          1.73200000	          0.00000000	          0.00000000	          0.00000000	          0.00000000	          0.00000000	          0.00000000	         35.65098254	        990.64617363	         64.69469729	         -0.16167072	          0.00000000	         -0.01283679	          0.00000000	          0.00000000	          0.00000000	          0.00000000	         -2.95056734	          0.00000000	
          1.73300000	          0.00000000	          0.00000000	          0.00000000	          0.00000000	          0.00000000	          0.00000000	         36.65644439	        993.17042890	         64.93399643	         -0.16150487	          0.00000000	         -0.01280162	          0.00000000	          0.00000000	          0.00000000	          0.00000000	         -2.97525410	          0.00000000	
          1.73400000	          0.00000000	          0.00000000	          0.00000000	          0.00000000	          0.00000000	          0.00000000	         37.65962404	        995.75677667	         65.14342067	         -0.16138920	          0.00000000	         -0.01281082	          0.00000000	          0.00000000	          0.00000000	          0.00000000	         -2.98020493	          0.00000000	
          1.73500000	          0.00000000	          0.00000000	          0.00000000	          0.00000000	          0.00000000	          0.00000000	         38.63985463	        998.31556885	         65.35444796	         -0.16131121	          0.00000000	         -0.01284769	          0.00000000	          0.00000000	          0.00000000	          0.00000000	         -2.97048714	          0.00000000	
          1.73600000	          0.00000000	          0.00000000	          0.00000000	          0.00000000	          0.00000000	          0.00000000	         39.59410058	       1000.76172233	         65.60292615	         -0.16124042	          0.00000000	         -0.01287080	          0.00000000	          0.00000000	          0.00000000	          0.00000000	         -2.95799444	          0.00000000	
          1.73700000	          0.00000000	          0.00000000	          0.00000000	          0.00000000	          0.00000000	          0.00000000	         40.54568891	       1003.06768193	         65.89856129	         -0.16114237	          0.00000000	         -0.01286345	          0.00000000	          0.00000000	          0.00000000	          0.00000000	         -2.95195037	          0.00000000	
          1.73800000	          0.00000000	          0.00000000	          0.00000000	          0.00000000	          0.00000000	          0.00000000	         41.52084385	       1005.26232867	         66.22105403	         -0.16099941	          0.00000000	         -0.01284389	          0.00000000	          0.00000000	          0.00000000	          0.00000000	         -2.95397882	          0.00000000	
          1.73900000	          0.00000000	          0.00000000	          0.00000000	          0.00000000	          0.00000000	          0.00000000	         42.52996822	       1007.39734905	         66.53613081	         -0.16081594	          0.00000000	         -0.01283699	          0.00000000	          0.00000000	          0.00000000	          0.00000000	         -2.96032452	          0.00000000	
